<?xml version="1.0" encoding="UTF-8"?>
<svg
  xmlns="http://www.w3.org/2000/svg"
  xmlns:xlink="http://www.w3.org/1999/xlink"
  viewBox="0 0 64 64"
  version="1.1"
  width="32px"
  height="32px"
>
  <g id="surface1">
    <path
      style=" fill:#FAEFDE;"
      d="M 8.890625 12.871094 L 61 12.871094 C 62.105469 12.871094 63 13.765625 63 14.871094 L 63 51.230469 C 63 52.335938 62.105469 53.230469 61 53.230469 L 8.890625 53.230469 C 7.785156 53.230469 6.890625 52.335938 6.890625 51.230469 L 6.890625 14.871094 C 6.890625 13.765625 7.785156 12.871094 8.890625 12.871094 Z "
    />
    <path
      style=" fill:#FFF7F0;"
      d="M 63 16 L 35 36 L 6 16 L 6 15 C 6 13.894531 6.894531 13 8 13 L 61 13 C 62.105469 13 63 13.894531 63 15 Z "
    />
    <path
      style=" fill:#EFD8BE;"
      d="M 10.890625 48 L 59 48 C 61.210938 48 63 49.789063 63 52 L 63 52.230469 C 63 52.78125 62.550781 53.230469 62 53.230469 L 7.890625 53.230469 C 7.335938 53.230469 6.890625 52.78125 6.890625 52.230469 L 6.890625 52 C 6.890625 49.789063 8.679688 48 10.890625 48 Z "
    />
    <path
      style=" fill:#FFFFFF;"
      d="M 61 17 L 8.890625 17 C 7.785156 17 6.890625 16.105469 6.890625 15 C 6.890625 13.894531 7.785156 13 8.890625 13 L 61 13 C 62.105469 13 63 13.894531 63 15 C 63 16.105469 62.105469 17 61 17 Z "
    />
    <path
      style=" fill:#ED7899;"
      d="M 25 19 C 25 25.628906 19.628906 31 13 31 C 6.371094 31 1 25.628906 1 19 C 1 12.371094 6.371094 7 13 7 C 19.628906 7 25 12.371094 25 19 Z "
    />
    <path
      style=" fill:#8D6C9F;"
      d="M 15 46 C 14.449219 46 14 46.449219 14 47 L 14 49 C 14 49.550781 14.449219 50 15 50 C 15.550781 50 16 49.550781 16 49 L 16 47 C 16 46.449219 15.550781 46 15 46 Z "
    />
    <path
      style=" fill:#8D6C9F;"
      d="M 10 46 C 9.449219 46 9 46.449219 9 47 L 9 49 C 9 49.550781 9.449219 50 10 50 C 10.550781 50 11 49.550781 11 49 L 11 47 C 11 46.449219 10.550781 46 10 46 Z "
    />
    <path
      style=" fill:#8D6C9F;"
      d="M 20 46 C 19.449219 46 19 46.449219 19 47 L 19 49 C 19 49.550781 19.449219 50 20 50 C 20.550781 50 21 49.550781 21 49 L 21 47 C 21 46.449219 20.550781 46 20 46 Z "
    />
    <path
      style=" fill:#8D6C9F;"
      d="M 25 46 C 24.449219 46 24 46.449219 24 47 L 24 49 C 24 49.550781 24.449219 50 25 50 C 25.550781 50 26 49.550781 26 49 L 26 47 C 26 46.449219 25.550781 46 25 46 Z "
    />
    <path
      style=" fill:#8D6C9F;"
      d="M 30 46 C 29.449219 46 29 46.449219 29 47 L 29 49 C 29 49.550781 29.449219 50 30 50 C 30.550781 50 31 49.550781 31 49 L 31 47 C 31 46.449219 30.550781 46 30 46 Z "
    />
    <path
      style=" fill:#8D6C9F;"
      d="M 35 46 C 34.449219 46 34 46.449219 34 47 L 34 49 C 34 49.550781 34.449219 50 35 50 C 35.550781 50 36 49.550781 36 49 L 36 47 C 36 46.449219 35.550781 46 35 46 Z "
    />
    <path
      style=" fill:#8D6C9F;"
      d="M 40 46 C 39.449219 46 39 46.449219 39 47 L 39 49 C 39 49.550781 39.449219 50 40 50 C 40.550781 50 41 49.550781 41 49 L 41 47 C 41 46.449219 40.550781 46 40 46 Z "
    />
    <path
      style=" fill:#8D6C9F;"
      d="M 45 46 C 44.449219 46 44 46.449219 44 47 L 44 49 C 44 49.550781 44.449219 50 45 50 C 45.550781 50 46 49.550781 46 49 L 46 47 C 46 46.449219 45.550781 46 45 46 Z "
    />
    <path
      style=" fill:#8D6C9F;"
      d="M 50 46 C 49.449219 46 49 46.449219 49 47 L 49 49 C 49 49.550781 49.449219 50 50 50 C 50.550781 50 51 49.550781 51 49 L 51 47 C 51 46.449219 50.550781 46 50 46 Z "
    />
    <path
      style=" fill:#8D6C9F;"
      d="M 55 46 C 54.449219 46 54 46.449219 54 47 L 54 49 C 54 49.550781 54.449219 50 55 50 C 55.550781 50 56 49.550781 56 49 L 56 47 C 56 46.449219 55.550781 46 55 46 Z "
    />
    <path
      style=" fill:#8D6C9F;"
      d="M 60 46 C 59.449219 46 59 46.449219 59 47 L 59 49 C 59 49.550781 59.449219 50 60 50 C 60.550781 50 61 49.550781 61 49 L 61 47 C 61 46.449219 60.550781 46 60 46 Z "
    />
    <path
      style=" fill:#8D6C9F;"
      d="M 61 12 L 23.941406 12 C 21.085938 7.496094 15.765625 5.191406 10.527344 6.191406 C 5.285156 7.1875 1.1875 11.285156 0.191406 16.527344 C -0.808594 21.765625 1.496094 27.085938 6 29.941406 L 6 51 C 6 52.65625 7.34375 54 9 54 L 61 54 C 62.65625 54 64 52.65625 64 51 L 64 15 C 64 13.34375 62.65625 12 61 12 Z M 61 14 C 61.550781 14 62 14.449219 62 15 L 62 16.210938 L 36.171875 34.921875 C 35.46875 35.429688 34.519531 35.429688 33.820313 34.921875 L 23.109375 27.160156 C 26.105469 23.453125 26.832031 18.402344 25 14 Z M 2 19 C 2 12.925781 6.925781 8 13 8 C 19.074219 8 24 12.925781 24 19 C 24 25.074219 19.074219 30 13 30 C 6.925781 30 2 25.074219 2 19 Z M 61 52 L 9 52 C 8.449219 52 8 51.550781 8 51 L 8 45.558594 L 25.570313 34.851563 C 25.960938 34.542969 26.066406 33.992188 25.8125 33.558594 C 25.5625 33.128906 25.03125 32.949219 24.570313 33.140625 L 8 43.21875 L 8 31 C 12.648438 32.945313 18 32.015625 21.71875 28.621094 L 32.660156 36.539063 C 34.058594 37.550781 35.949219 37.550781 37.351563 36.539063 L 62 18.679688 L 62 43.21875 L 45.46875 33.148438 C 45.164063 32.910156 44.746094 32.867188 44.394531 33.042969 C 44.046875 33.222656 43.835938 33.585938 43.851563 33.976563 C 43.867188 34.367188 44.109375 34.710938 44.46875 34.859375 L 62 45.558594 L 62 51 C 62 51.550781 61.550781 52 61 52 Z "
    />
    <path
      style=" fill:#F9EFDE;"
      d="M 15.039063 25 C 15.039063 26.105469 14.144531 27 13.039063 27 C 11.933594 27 11.039063 26.105469 11.039063 25 C 11.039063 23.894531 11.933594 23 13.039063 23 C 14.144531 23 15.039063 23.894531 15.039063 25 Z "
    />
    <path
      style=" fill:#F9EFDE;"
      d="M 13 22 C 13.511719 22.003906 13.945313 21.617188 14 21.109375 L 14.929688 13.109375 C 14.972656 12.574219 14.785156 12.042969 14.421875 11.648438 C 14.042969 11.273438 13.535156 11.0625 13.003906 11.0625 C 12.472656 11.0625 11.964844 11.273438 11.589844 11.648438 C 11.222656 12.058594 11.042969 12.601563 11.089844 13.148438 L 12.011719 21.148438 C 12.085938 21.640625 12.503906 22 13 22 Z "
    />
  </g>
</svg>
