<?xml version="1.0" encoding="utf-8"?>
<!-- Generator: Adobe Illustrator 18.0.0, SVG Export Plug-In . SVG Version: 6.00 Build 0)  -->
<!DOCTYPE svg PUBLIC "-//W3C//DTD SVG 1.1//EN" "http://www.w3.org/Graphics/SVG/1.1/DTD/svg11.dtd">
<svg
  xmlns="http://www.w3.org/2000/svg"
  xmlns:xlink="http://www.w3.org/1999/xlink"
  version="1.1"
  id="Слой_1"
  x="0px"
  y="0px"
  viewBox="0 0 128 128"
  enable-background="new 0 0 128 128"
  xml:space="preserve"
  width="28px"
  height="28px"
>
  <g>
    <g>
      <g>
        <g>
          <g>
            <ellipse fill="#F4F0A4" cx="64" cy="70.7" rx="45.2" ry="45" />
          </g>
        </g>
      </g>
      <g>
        <g>
          <g>
            <g>
              <g>
                <g>
                  <path
                    fill="#FFFFFF"
                    d="M73.2,40.6v1.6H54.5v-1.3c0,5.2-2.2,10.2-6.1,13.7c-5.2,4.6-8.3,11.5-7.7,19.1          C41.6,85.1,51,94.4,62.5,95.1c13.6,0.9,24.8-9.9,24.8-23.2c0-6.9-3-13-7.8-17.3C75.6,51,73.2,46,73.2,40.6z"
                  />
                </g>
              </g>
            </g>
            <g>
              <g>
                <g>
                  <path
                    fill="#454B54"
                    d="M64,98.1C64,98.1,64,98.1,64,98.1c-0.6,0-1.1,0-1.7-0.1c-13-0.8-23.6-11.2-24.6-24.2          c-0.6-8.2,2.6-16.1,8.7-21.6c3.2-2.9,5-7,5-11.5c0-1.7,1.3-3,3-3c1,0,1.9,0.5,2.5,1.3h13.6c0.5-0.9,1.5-1.6,2.6-1.6          c1.7,0,3,1.3,3,3c0,4.4,2,8.7,5.4,11.8c5.6,5,8.8,12.1,8.8,19.5c0,7-2.7,13.6-7.7,18.6C77.6,95.4,71,98.1,64,98.1z           M57.1,45.2c-0.9,4.5-3.2,8.6-6.6,11.7c-4.8,4.2-7.2,10.3-6.7,16.7c0.8,10,8.9,18,18.9,18.6c6,0.4,11.6-1.8,15.7-5.9          c3.8-3.8,6-8.9,6-14.3c0-5.7-2.5-11.2-6.8-15.1c-3.5-3.1-5.9-7.3-6.9-11.7H57.1z"
                  />
                </g>
              </g>
            </g>
            <g>
              <g>
                <g>
                  <g>
                    <path
                      fill="#F2EDAA"
                      d="M54.5,40.9c0,0.4,0,0.9-0.1,1.3h0.1V40.9z"
                    />
                  </g>
                </g>
              </g>
              <g>
                <g>
                  <g>
                    <path
                      fill="#F2EDAA"
                      d="M70.4,42.2L70.4,42.2c0-0.5,0-1,0-1.6V42.2z"
                    />
                  </g>
                </g>
              </g>
            </g>
            <g>
              <g>
                <g>
                  <path
                    fill="#C7D7E2"
                    d="M73.2,42.2H54.5v-9.3c0-5.1,4.2-9.3,9.3-9.3h0c5.1,0,9.3,4.2,9.3,9.3V42.2z"
                  />
                </g>
              </g>
            </g>
            <g>
              <g>
                <g>
                  <path
                    fill="#454B54"
                    d="M73.2,45.2H54.5c-1.7,0-3-1.3-3-3v-9.3c0-6.8,5.5-12.3,12.3-12.3c6.8,0,12.4,5.5,12.4,12.3v9.3          C76.2,43.8,74.8,45.2,73.2,45.2z M57.5,39.2h12.7v-6.3c0-3.5-2.8-6.3-6.3-6.3c-3.5,0-6.4,2.8-6.4,6.3V39.2z"
                  />
                </g>
              </g>
            </g>
          </g>
        </g>
      </g>
    </g>
    <g>
      <g>
        <g>
          <path
            fill="#454B54"
            d="M64,116.7c-1.7,0-3-1.3-3-3v-4.6c0-1.7,1.3-3,3-3s3,1.3,3,3v4.6C67,115.4,65.7,116.7,64,116.7z"
          />
        </g>
      </g>
      <g>
        <g>
          <path
            fill="#454B54"
            d="M93.7,104.5c-0.8,0-1.5-0.3-2.1-0.9l-3.3-3.3c-1.2-1.2-1.2-3.1,0-4.2c1.2-1.2,3.1-1.2,4.2,0l3.3,3.3      c1.2,1.2,1.2,3.1,0,4.2C95.2,104.2,94.5,104.5,93.7,104.5z"
          />
        </g>
      </g>
      <g>
        <g>
          <path
            fill="#454B54"
            d="M106,74.9h-4.7c-1.7,0-3-1.3-3-3s1.3-3,3-3h4.7c1.7,0,3,1.3,3,3S107.7,74.9,106,74.9z"
          />
        </g>
      </g>
      <g>
        <g>
          <path
            fill="#454B54"
            d="M26.7,74.9H22c-1.7,0-3-1.3-3-3s1.3-3,3-3h4.7c1.7,0,3,1.3,3,3S28.3,74.9,26.7,74.9z"
          />
        </g>
      </g>
      <g>
        <g>
          <path
            fill="#454B54"
            d="M34.3,104.5c-0.8,0-1.5-0.3-2.1-0.9c-1.2-1.2-1.2-3.1,0-4.2l3.3-3.3c1.2-1.2,3.1-1.2,4.2,0      c1.2,1.2,1.2,3.1,0,4.2l-3.3,3.3C35.8,104.2,35.1,104.5,34.3,104.5z"
          />
        </g>
      </g>
    </g>
    <g>
      <g>
        <path
          fill="#454B54"
          d="M63.8,26.6c-1.7,0-3-1.3-3-3v-9.3c0-1.7,1.3-3,3-3s3,1.3,3,3v9.3C66.8,25.2,65.5,26.6,63.8,26.6z"
        />
      </g>
    </g>
  </g>
</svg>
