<?xml version="1.0" standalone="no"?>
<!DOCTYPE svg PUBLIC "-//W3C//DTD SVG 20010904//EN"
 "http://www.w3.org/TR/2001/REC-SVG-20010904/DTD/svg10.dtd">
<svg version="1.0" xmlns="http://www.w3.org/2000/svg"
 width="361.000000pt" height="361.000000pt" viewBox="0 0 361.000000 361.000000"
 preserveAspectRatio="xMidYMid meet">
<metadata>
Created by potrace 1.11, written by Peter Selinger 2001-2013
</metadata>
<g transform="translate(0.000000,361.000000) scale(0.100000,-0.100000)"
fill="#000000" stroke="none">
<path d="M1786 3544 c-25 -82 -55 -131 -132 -214 -36 -40 -74 -91 -85 -114
-39 -86 -15 -189 62 -265 22 -21 39 -40 39 -43 0 -3 -31 -4 -70 -3 -58 2 -70
-1 -71 -14 -9 -158 -46 -284 -122 -412 -130 -219 -380 -372 -642 -393 -33 -3
-60 -5 -61 -6 0 0 0 -34 1 -75 l2 -75 -46 46 c-56 57 -116 84 -184 84 -63 0
-115 -26 -184 -90 -88 -83 -131 -112 -210 -141 -43 -15 -68 -28 -56 -28 30 -1
117 -36 157 -64 18 -12 64 -50 101 -85 38 -35 82 -69 99 -76 99 -41 188 -23
268 54 29 28 53 50 53 50 1 0 1 -32 0 -70 -1 -39 1 -72 4 -74 3 -2 33 -7 66
-10 33 -4 71 -9 85 -11 14 -3 34 -7 45 -9 46 -9 165 -60 229 -98 38 -22 102
-73 141 -112 153 -151 233 -321 250 -531 2 -16 3 -36 4 -42 1 -9 23 -13 77
-13 l76 0 -47 -45 c-57 -56 -85 -114 -85 -180 0 -67 25 -117 99 -197 76 -82
125 -163 142 -230 l12 -52 14 54 c18 71 60 140 135 220 69 76 95 120 103 182
10 76 -31 165 -103 221 l-35 27 81 0 82 0 1 43 c2 126 55 286 133 405 143 219
400 365 649 371 l37 1 0 77 0 77 43 -43 c54 -56 106 -81 171 -86 71 -5 132 25
216 105 76 72 130 106 208 130 55 18 56 18 27 25 -75 19 -153 65 -228 134 -43
40 -97 81 -120 92 -91 41 -198 15 -274 -68 l-43 -46 0 77 c0 72 -1 76 -22 77
-13 0 -32 2 -43 4 -11 2 -40 6 -65 10 -290 40 -551 262 -649 552 -23 69 -28
93 -37 182 -3 36 -8 69 -9 72 -2 3 -36 5 -74 5 -39 -1 -71 1 -71 4 0 3 16 17
35 33 57 45 89 110 89 181 0 76 -19 116 -91 196 -96 105 -126 153 -147 236
l-12 46 -18 -58z m116 -226 c25 -29 55 -64 67 -77 50 -57 53 -154 6 -221 -15
-21 -59 -61 -99 -89 l-73 -50 -59 41 c-81 56 -92 66 -122 117 -20 34 -26 57
-24 93 2 61 17 89 87 163 31 33 70 81 87 107 l31 47 26 -39 c14 -21 47 -62 73
-92z m133 -478 c1 -8 5 -39 9 -68 10 -74 42 -175 83 -257 129 -258 382 -437
669 -473 l59 -7 0 -223 c0 -123 -2 -227 -5 -231 -3 -5 -35 -11 -71 -15 -173
-16 -379 -122 -509 -262 -123 -131 -212 -321 -227 -481 -3 -35 -11 -64 -17
-64 -69 -7 -449 -2 -452 6 -2 5 -5 28 -8 50 -31 284 -218 544 -483 674 -76 37
-175 68 -243 76 -99 12 -90 -13 -90 246 l0 229 28 0 c55 1 109 12 199 42 262
86 464 288 551 551 27 82 39 139 41 203 1 21 4 21 233 20 197 -1 231 -3 233
-16z m-1458 -856 c43 -25 125 -123 138 -165 4 -13 -4 -36 -25 -70 -66 -101
-133 -149 -212 -149 -51 0 -87 20 -178 100 -36 31 -82 68 -103 82 l-37 25 52
36 c29 19 77 58 107 86 97 91 171 107 258 55z m2631 7 c20 -11 55 -37 77 -58
54 -52 126 -108 149 -117 16 -5 12 -11 -29 -37 -27 -17 -73 -54 -102 -82 -152
-147 -273 -128 -390 61 l-31 51 30 48 c90 145 189 189 296 134z m-1304 -1328
c84 -60 124 -155 97 -234 -6 -19 -45 -72 -87 -119 -41 -47 -83 -100 -93 -119
l-18 -33 -26 44 c-14 25 -57 79 -95 121 -47 52 -73 89 -80 116 -23 91 27 179
142 252 68 43 56 45 160 -28z"/>
<path d="M1790 3353 c0 -4 -27 -37 -61 -73 -89 -95 -107 -147 -73 -212 21 -40
38 -57 97 -98 45 -30 51 -31 75 -19 47 25 121 99 131 132 21 66 7 98 -86 200
-65 71 -83 86 -83 70z m98 -157 c46 -53 44 -94 -8 -146 -55 -55 -82 -60 -128
-23 -45 36 -71 84 -64 119 2 14 29 52 59 85 l55 59 27 -29 c15 -16 42 -46 59
-65z"/>
<path d="M1615 2810 c-2 -3 -6 -26 -9 -52 -15 -113 -75 -262 -149 -370 l-46
-66 390 0 c214 -1 389 1 389 4 0 2 -15 25 -34 51 -73 103 -156 312 -156 394 0
15 -5 31 -12 35 -13 8 -368 12 -373 4z m342 -69 c14 -95 68 -242 117 -319 14
-23 26 -44 26 -47 0 -3 -135 -5 -299 -5 l-300 0 35 57 c42 70 88 188 104 268
7 33 14 63 16 66 2 4 70 6 150 5 l147 -1 4 -24z"/>
<path d="M1707 2722 c-9 -2 -20 -16 -23 -30 -16 -75 -39 -144 -69 -209 l-33
-71 223 -1 222 0 -29 60 c-36 74 -63 151 -73 207 -6 39 -9 42 -38 43 -113 3
-166 4 -180 1z m198 -143 c18 -53 35 -101 39 -108 7 -11 -7 -12 -119 -12 -163
0 -168 0 -160 19 4 9 22 58 38 109 l31 91 70 -1 69 -2 32 -96z"/>
<path d="M1332 1808 l3 -473 468 0 c257 0 468 2 468 5 4 16 4 917 1 928 -3 9
-107 12 -473 12 l-469 0 2 -472z m382 423 l58 -1 -193 -194 c-107 -107 -195
-193 -197 -192 -2 3 -4 298 -3 363 1 21 5 22 104 25 56 2 118 2 137 1 19 -1
61 -2 94 -2z m469 0 l47 -1 0 -197 0 -198 -195 195 -195 195 112 5 c62 3 129
4 148 3 19 -1 56 -2 83 -2z m-181 -232 l192 -190 -197 -197 -196 -196 -194
196 -193 197 190 190 c105 105 194 191 199 191 4 0 94 -86 199 -191z m-423
-617 c-106 -1 -194 -1 -196 1 -3 4 -5 195 -3 357 0 34 2 33 195 -160 l195
-195 -191 -3z m651 193 l0 -195 -197 0 -198 0 195 195 c107 107 196 195 197
195 2 0 3 -88 3 -195z"/>
<path d="M1422 2068 c0 -97 2 -117 13 -108 18 15 185 182 209 209 l19 21 -121
-2 -120 -1 0 -119z m128 69 c0 -2 -18 -21 -40 -42 l-40 -39 0 42 0 42 40 0
c22 0 40 -1 40 -3z"/>
<path d="M1950 2181 c1 -16 228 -231 232 -219 2 7 4 60 4 118 l-1 105 -117 1
c-65 1 -118 -1 -118 -5z m190 -81 c0 -22 -1 -40 -3 -40 -2 0 -21 18 -42 40
l-39 40 42 0 42 0 0 -40z"/>
<path d="M1639 1970 l-163 -161 165 -165 164 -164 165 165 c90 90 162 166 159
167 -3 2 -77 74 -165 161 l-161 159 -164 -162z m294 -292 l-131 -131 -131 129
-130 129 132 133 132 132 130 -130 130 -130 -132 -132z"/>
<path d="M1422 1545 c0 -81 3 -115 11 -116 16 -1 100 -1 172 0 l60 1 -105 105
c-58 59 -112 110 -121 115 -15 9 -17 -2 -17 -105z m93 -35 l39 -40 -42 2 c-42
1 -42 2 -42 40 0 21 1 38 3 38 2 0 21 -18 42 -40z"/>
<path d="M2062 1547 c-62 -62 -112 -114 -112 -117 0 -4 95 -4 210 -1 l26 1 -1
109 c0 61 -3 112 -6 115 -3 3 -55 -45 -117 -107z m76 -34 c-3 -36 -5 -38 -41
-40 -42 -2 -42 4 2 48 36 37 43 35 39 -8z"/>
<path d="M1217 2150 c-98 -70 -248 -130 -367 -146 -25 -3 -47 -8 -49 -10 -3
-3 -5 -88 -5 -190 -1 -177 0 -185 19 -189 198 -40 273 -68 392 -147 40 -26 74
-45 76 -40 4 6 7 773 3 771 0 0 -32 -22 -69 -49z m23 -345 c0 -276 -1 -294
-17 -288 -10 3 -23 10 -28 14 -51 39 -239 109 -325 122 l-25 4 -2 146 c-1 81
2 149 6 152 5 3 24 7 42 9 62 8 193 56 264 95 39 22 73 40 78 40 4 1 7 -132 7
-294z"/>
<path d="M1160 2011 c-46 -25 -207 -81 -230 -81 -38 0 -45 -22 -43 -126 1 -54
2 -102 2 -105 1 -4 18 -10 39 -14 52 -9 141 -39 188 -63 88 -44 81 -61 81 188
0 121 -1 220 -1 220 -1 -1 -17 -9 -36 -19z m-10 -207 c0 -135 -1 -146 -17
-138 -10 4 -58 21 -108 39 l-90 31 -1 71 -1 71 101 34 c56 19 104 36 109 36 4
1 7 -64 7 -144z"/>
<path d="M2320 1809 c0 -215 3 -389 8 -387 4 2 40 25 80 51 105 70 248 124
372 141 l25 3 3 191 2 192 -22 0 c-95 0 -309 83 -412 159 l-56 42 0 -392z
m170 232 c82 -40 210 -81 249 -81 10 0 21 -6 23 -12 4 -11 3 -272 -1 -288 0
-3 -11 -6 -24 -8 -55 -4 -209 -57 -286 -98 -46 -24 -84 -44 -85 -44 -1 0 1
569 3 589 1 12 4 11 19 -2 9 -8 55 -34 102 -56z"/>
<path d="M2410 1809 c0 -173 3 -220 13 -216 85 39 190 77 238 88 l59 13 0 112
0 112 -32 7 c-60 12 -162 47 -220 77 l-58 28 0 -221z m170 99 l95 -33 -1 -60
c-1 -33 -2 -65 -3 -71 -1 -10 -182 -75 -206 -74 -5 0 -9 58 -10 141 0 120 2
139 15 135 8 -3 58 -20 110 -38z"/>
<path d="M1454 1228 c58 -83 88 -146 119 -245 26 -82 35 -119 36 -161 l1 -22
192 2 192 3 12 70 c18 106 69 234 130 326 30 45 54 84 54 86 0 2 -175 3 -390
3 l-389 0 43 -62z m643 12 c-83 -162 -118 -255 -141 -370 l-5 -25 -147 0 -146
0 -24 95 c-24 94 -95 260 -121 282 -8 6 -10 14 -4 17 11 7 592 8 588 1z"/>
<path d="M1616 1126 c19 -41 44 -111 56 -155 l21 -81 112 0 111 0 12 58 c10
46 49 152 89 240 4 9 -43 12 -215 12 l-221 0 35 -74z m326 25 c4 0 0 -18 -9
-38 -9 -21 -26 -69 -38 -108 l-22 -70 -68 0 -69 0 -14 40 c-7 22 -24 69 -38
104 -13 36 -20 67 -15 71 8 4 248 6 273 1z"/>
<path d="M425 1955 c-16 -7 -63 -44 -103 -82 l-73 -69 82 -72 c81 -70 131 -96
174 -87 11 2 23 4 27 4 16 2 80 66 109 109 31 46 31 46 13 76 -68 118 -147
159 -229 121z m122 -57 c9 -7 29 -30 44 -52 l28 -38 -29 -43 c-34 -50 -70 -75
-105 -75 -35 0 -55 12 -115 68 l-51 48 47 45 c73 69 90 78 130 69 19 -5 42
-14 51 -22z"/>
<path d="M3061 1953 c-35 -17 -105 -98 -116 -134 -13 -41 82 -152 145 -169 64
-17 78 -11 189 85 l81 70 -28 24 c-15 13 -49 45 -77 71 -27 25 -60 52 -72 58
-31 17 -82 14 -122 -5z m137 -65 c14 -13 39 -36 56 -51 l31 -29 -63 -60 c-60
-58 -64 -60 -103 -55 -44 6 -78 32 -110 84 l-20 33 28 39 c56 80 121 93 181
39z"/>
<path d="M1743 635 c-64 -43 -94 -85 -100 -139 -6 -52 8 -77 97 -173 l65 -70
70 78 c104 116 115 154 66 230 -25 40 -114 109 -139 109 -4 0 -30 -16 -59 -35z
m80 -26 c12 -7 39 -29 60 -50 57 -58 53 -92 -22 -171 l-60 -63 -47 50 c-86 92
-88 131 -12 200 57 51 52 49 81 34z"/>
<path d="M1443 2987 c-3 -5 -7 -46 -8 -91 -3 -103 -10 -144 -42 -234 l-25 -73
-37 39 c-61 66 -95 77 -268 87 -87 5 -180 32 -225 65 -33 24 -34 22 -9 -22 38
-65 60 -151 62 -245 2 -119 24 -185 78 -236 l41 -38 -28 -10 c-91 -36 -154
-49 -265 -54 -48 -2 -91 -6 -95 -9 -5 -3 -8 -26 -7 -51 1 -34 6 -49 23 -61 22
-15 22 -15 22 29 l0 44 65 2 c66 2 72 3 164 22 85 17 283 109 237 109 -73 0
-158 63 -175 128 -5 20 -12 82 -15 137 -3 55 -10 115 -15 133 -10 32 -9 34 13
28 45 -11 92 -16 177 -20 72 -3 95 -8 138 -31 54 -30 91 -85 91 -138 0 -44 14
-31 52 46 65 133 85 210 89 345 l2 62 44 0 c44 0 44 0 29 22 -13 17 -26 23
-62 23 -25 1 -48 -3 -51 -8z"/>
<path d="M2054 2976 c-14 -20 -13 -21 28 -26 l42 -5 2 -65 c4 -127 30 -224 91
-342 35 -68 53 -78 53 -32 0 36 33 96 67 120 37 27 70 35 178 40 50 3 107 10
129 15 21 6 40 8 43 6 2 -3 0 -31 -6 -63 -6 -32 -11 -85 -11 -118 -1 -143 -45
-211 -154 -239 l-47 -12 58 -31 c108 -58 231 -90 368 -97 50 -2 50 -2 51 -37
2 -54 3 -54 24 -35 23 21 30 115 8 115 -118 3 -203 12 -248 24 -30 9 -66 19
-80 22 -49 13 -52 24 -15 59 55 51 74 107 80 231 6 116 22 182 63 252 l25 44
-55 -31 c-64 -36 -162 -58 -263 -60 -102 -2 -139 -15 -196 -70 l-50 -48 -15
35 c-28 69 -47 159 -53 262 l-6 105 -48 1 c-38 1 -51 -4 -63 -20z"/>
<path d="M976 2611 c1 -9 5 -60 8 -114 5 -108 16 -134 69 -168 27 -17 44 -19
107 -15 115 7 112 6 126 67 16 69 10 146 -14 178 -31 43 -77 59 -193 64 -95 4
-106 3 -103 -12z m233 -53 c31 -19 44 -61 39 -124 -5 -62 -12 -69 -75 -79 -58
-8 -110 9 -127 44 -12 22 -20 110 -17 168 1 17 151 10 180 -9z"/>
<path d="M2484 2620 c-93 -6 -116 -15 -149 -58 -29 -39 -28 -195 1 -231 9 -10
125 -26 160 -21 95 14 121 55 129 209 l7 111 -30 -2 c-16 -2 -69 -5 -118 -8z
m93 -124 c-4 -92 -18 -122 -64 -137 -32 -10 -104 -5 -133 11 -27 14 -31 127
-5 166 18 29 54 39 141 40 l66 1 -5 -81z"/>
<path d="M634 1554 c-14 -14 -20 -32 -19 -65 l1 -44 104 -6 c114 -7 133 -11
228 -41 l63 -20 -36 -37 c-67 -66 -81 -110 -86 -266 -3 -85 -22 -155 -59 -216
l-28 -45 62 32 c77 41 126 52 251 57 114 5 167 25 221 84 l32 35 21 -57 c31
-83 42 -139 46 -240 2 -49 4 -93 4 -97 1 -5 23 -8 49 -8 35 0 54 5 66 19 20
22 10 28 -40 26 l-32 -1 -1 66 c-3 129 -38 255 -104 369 -28 49 -32 53 -35 31
-16 -129 -75 -174 -242 -183 -101 -6 -130 -9 -170 -22 -17 -5 -17 -2 -5 57 7
35 13 99 14 143 3 130 53 203 151 220 22 4 40 10 40 14 0 11 -121 69 -190 91
-72 23 -128 32 -215 34 l-60 1 -5 45 -5 45 -21 -21z"/>
<path d="M2947 1562 c-2 -4 -3 -22 -1 -39 2 -25 -2 -33 -14 -34 -189 -11 -331
-49 -430 -115 l-33 -21 40 -7 c58 -9 104 -40 131 -88 19 -34 25 -63 31 -157 4
-64 10 -131 14 -149 7 -32 7 -32 -19 -22 -14 5 -74 12 -134 15 -115 6 -162 17
-203 48 -31 22 -59 78 -62 124 -3 42 -15 30 -60 -62 -55 -111 -79 -209 -81
-335 -1 -49 -11 -62 -46 -55 -32 6 -42 -3 -27 -25 9 -16 23 -20 64 -20 l53 0
1 78 c0 42 2 88 4 102 10 61 30 138 47 178 l17 42 45 -44 c53 -53 118 -76 216
-76 109 0 193 -22 291 -77 3 -2 -9 27 -27 64 -39 80 -42 94 -50 233 -6 122
-23 170 -77 217 -20 18 -37 34 -37 36 0 8 89 38 156 52 38 8 106 15 152 15
l82 0 0 53 c0 41 -4 55 -20 64 -10 7 -21 9 -23 5z"/>
<path d="M1110 1303 c-101 -15 -126 -61 -131 -241 l-2 -77 84 3 c46 2 98 5
114 9 88 17 126 74 119 179 -6 91 -16 111 -61 118 -58 10 -96 13 -123 9z m126
-56 c3 -3 8 -36 11 -74 5 -63 4 -71 -19 -98 -23 -26 -32 -29 -112 -34 -47 -4
-87 -3 -89 2 -1 4 0 44 4 89 5 73 8 84 34 106 26 22 35 24 98 19 38 -3 71 -8
73 -10z"/>
<path d="M2378 1296 c-52 -10 -54 -14 -64 -114 -8 -75 8 -125 50 -157 27 -21
47 -26 122 -30 49 -3 102 -8 117 -10 l28 -5 -5 109 c-6 125 -13 148 -55 184
-43 36 -97 42 -193 23z m166 -61 c28 -30 34 -54 32 -137 l-1 -61 -75 2 c-115
4 -153 38 -143 131 9 85 10 86 111 89 45 1 57 -3 76 -24z"/>
</g>
</svg>
